PathFileType	4	(X/Y/Z)	C:\Users\xlb\Desktop\20210112\20210112\bx_n_10_502.trc
DataRate	CameraRate	NumFrames	NumMarkers	Units	OrigDataRate	OrigDataStartFrame	OrigNumFrames
50.00	50.00	       5	43	mm	50.00	119	       473
Frame#	Time	Top.Head			R.Acromium			L.Acromium			Sternum			R.ASIS			L.ASIS			V.Sacral			R.Thigh.Upper			R.Thigh.Front			R.Thigh.Rear			R.Knee.Lat			R.Knee.Med			R.Shank.Upper			R.Shank.Front			R.Shank.Rear			R.Ankle.Lat			R.Midfoot.Lat			R.Toe.Lat			R.Toe.Tip			R.Toe.Med			R.Ankle.Med			R.Midfoot.Sup			R.Heel			L.Thigh.Upper			L.Thigh.Front			L.Thigh.Rear			L.Knee.Lat			L.Knee.Med			L.Shank.Upper			L.Shank.Front			L.Shank.Rear			L.Ankle.Lat			L.Midfoot.Lat			L.Toe.Lat			L.Toe.Tip			L.Toe.Med			L.Ankle.Med			L.Midfoot.Sup			L.Heel			origin1 front left			origin2 front right			origin 3 back right			origin 4 back leftt			
		X1	Y1	Z1	X2	Y2	Z2	X3	Y3	Z3	X4	Y4	Z4	X5	Y5	Z5	X6	Y6	Z6	X7	Y7	Z7	X8	Y8	Z8	X9	Y9	Z9	X10	Y10	Z10	X11	Y11	Z11	X12	Y12	Z12	X13	Y13	Z13	X14	Y14	Z14	X15	Y15	Z15	X16	Y16	Z16	X17	Y17	Z17	X18	Y18	Z18	X19	Y19	Z19	X20	Y20	Z20	X21	Y21	Z21	X22	Y22	Z22	X23	Y23	Z23	X24	Y24	Z24	X25	Y25	Z25	X26	Y26	Z26	X27	Y27	Z27	X28	Y28	Z28	X29	Y29	Z29	X30	Y30	Z30	X31	Y31	Z31	X32	Y32	Z32	X33	Y33	Z33	X34	Y34	Z34	X35	Y35	Z35	X36	Y36	Z36	X37	Y37	Z37	X38	Y38	Z38	X39	Y39	Z39	X40	Y40	Z40	X41	Y41	Z41	X42	Y42	Z42	X43	Y43	Z43	

119	2.360	-122.33435	124.35028	1297.44067	-355.29449	-56.93039	1149.46106	-372.92130	268.08176	1143.42322	-475.96451	92.53587	978.10669	-772.12061	-9.63348	977.11938	-766.45776	234.21747	997.50043	-932.96753	93.62601	1098.03699	-849.78711	-75.25973	859.66968	-759.34680	-6.16143	804.95282	-841.31982	-66.86971	744.31879	-819.70264	-36.67406	607.51385	-798.93683	73.07687	567.07300	-815.48163	-34.71699	560.15704	-755.29120	16.86181	525.71124	-835.89929	-49.95544	472.97299	-762.61554	-24.23061	202.46968	-648.09650	-68.69016	160.89378	-606.24518	-75.67510	156.88589	-549.85968	-26.35312	163.58069	-599.07184	25.95333	166.38005	-727.00366	64.32822	218.80762	-673.32928	50.93370	162.33389	-794.30261	34.42619	172.39693	-868.45911	291.22794	863.56262	-761.80798	209.91017	812.05365	-843.74927	284.69781	727.93262	-846.78345	257.02097	624.27826	-797.48633	146.96577	570.91010	-831.11798	252.13960	562.87598	-769.54883	208.58350	535.88849	-851.29956	265.59100	483.12793	-773.14594	231.68524	201.16830	-660.04871	298.84299	156.37386	-623.26733	307.04224	158.38536	-557.48596	254.05508	163.44577	-593.81860	219.47409	173.48756	-721.39929	159.01936	222.25009	-676.84967	176.13840	162.48412	-798.66052	181.98135	181.24399	-528.00281	304.06229	146.22655	-517.74738	-72.67386	142.69560	-875.81836	-78.64019	141.13989	-882.70959	296.00653	144.56900	
120	2.380	-123.08582	124.30430	1296.43005	-355.25687	-56.72572	1148.00903	-373.27795	267.93564	1142.02429	-476.28839	92.29035	975.67822	-772.97241	-9.74895	976.80121	-767.13843	233.98396	997.33655	-933.70935	93.52621	1097.90747	-850.54138	-75.30479	859.46997	-759.98615	-6.20250	804.84021	-842.02734	-66.90562	744.21368	-820.24261	-36.63712	607.39038	-799.35144	73.03373	566.99835	-815.89087	-34.77602	560.02960	-755.85120	16.91653	525.59766	-836.14746	-49.90760	472.79785	-762.60571	-24.23900	202.47548	-648.08734	-68.65881	160.89302	-606.25519	-75.68887	156.94568	-549.86975	-26.39876	163.57381	-599.09717	26.03179	166.35515	-726.91016	64.42155	218.82231	-673.36920	50.96960	162.29800	-794.29108	34.44657	172.36058	-869.16223	291.19647	863.53284	-762.46753	209.70282	812.09741	-844.20691	284.54330	727.83972	-847.16675	256.95123	624.22528	-797.99530	146.87651	570.89111	-831.38660	252.05862	562.73773	-769.88403	208.53459	535.91376	-851.49207	265.52838	483.10651	-773.09521	231.70700	201.16347	-660.01941	298.83044	156.40869	-623.25421	307.05133	158.35039	-557.49530	254.05536	163.42096	-593.81506	219.46671	173.48590	-721.50909	158.89861	222.17226	-676.82843	176.14873	162.47984	-798.68329	182.01579	181.22815	-527.99640	304.07907	146.24196	-517.77820	-72.74898	142.76572	-875.83032	-78.65621	141.12137	-882.69452	296.00095	144.57112	
121	2.400	-123.86749	124.23987	1295.52051	-355.30228	-56.56718	1146.70691	-373.67599	267.86987	1140.80212	-476.68506	92.05222	973.45386	-773.81787	-9.96574	976.56836	-767.82831	233.76164	997.18921	-934.56641	93.43482	1097.76855	-851.26660	-75.32143	859.18787	-760.62219	-6.27111	804.75623	-842.67596	-66.99427	744.08875	-820.76489	-36.62243	607.22955	-799.84045	72.96497	566.87512	-816.20453	-34.80372	559.86664	-756.26648	16.94084	525.45752	-836.38324	-49.86320	472.59293	-762.60284	-24.23866	202.48068	-648.07941	-68.61678	160.88612	-606.26465	-75.70977	157.00792	-549.87793	-26.42994	163.56384	-599.09296	26.13848	166.32195	-726.80267	64.50374	218.86836	-673.40167	50.99644	162.26443	-794.26501	34.48510	172.31754	-869.85144	291.05072	863.46326	-763.06311	209.54684	812.13757	-844.68970	284.33948	727.80908	-847.59875	256.89230	624.16785	-798.51807	146.78166	570.81433	-831.75244	252.04889	562.68756	-770.24060	208.44684	535.93372	-851.72498	265.51236	483.06195	-773.11395	231.73749	201.17307	-659.99756	298.81787	156.42365	-623.23743	307.03558	158.33066	-557.50812	254.05415	163.41881	-593.84442	219.46881	173.49045	-721.64734	158.76981	222.07269	-676.81293	176.16092	162.48941	-798.69952	182.03613	181.21948	-528.00250	304.07751	146.24786	-517.80853	-72.80550	142.81085	-875.85736	-78.68990	141.13675	-882.66467	296.00067	144.57057	
122	2.420	-124.66705	124.16130	1294.73389	-355.42242	-56.50290	1145.61023	-374.14951	267.76822	1139.63745	-477.15289	91.82188	971.43311	-774.65875	-10.18706	976.37854	-768.54126	233.50917	997.03735	-935.49841	93.33446	1097.60510	-852.01007	-75.38007	858.91443	-761.30750	-6.38010	804.70477	-843.29761	-67.12250	743.93665	-821.28302	-36.68601	607.05750	-800.41229	72.84275	566.68365	-816.52875	-34.87363	559.70483	-756.56262	16.85928	525.35443	-836.66412	-49.90186	472.37607	-762.61279	-24.23850	202.45761	-648.07281	-68.58694	160.88020	-606.26428	-75.72794	157.03427	-549.87518	-26.42881	163.55228	-599.03607	26.22691	166.31725	-726.78241	64.47706	218.90718	-673.39740	50.99145	162.26659	-794.26257	34.49693	172.32465	-870.50085	290.82858	863.35779	-763.59772	209.46133	812.15356	-845.24359	284.17044	727.82147	-848.06415	256.85587	624.10742	-798.95764	146.70947	570.70081	-832.17072	252.12520	562.72333	-770.59332	208.33205	535.93201	-852.01624	265.52942	482.99188	-773.19006	231.78247	201.20157	-659.98676	298.80853	156.42491	-623.20282	306.99432	158.32480	-557.53839	254.05112	163.42502	-593.89392	219.49158	173.49467	-721.78015	158.68501	222.04865	-676.82275	176.19006	162.52850	-798.72400	182.06032	181.21770	-528.01575	304.06137	146.24768	-517.80865	-72.81804	142.82837	-875.87903	-78.70163	141.16734	-882.63947	296.00299	144.56511	
123	2.440	-125.50079	124.08949	1294.12170	-355.65808	-56.51969	1144.74841	-374.71414	267.56531	1138.44861	-477.69016	91.59977	969.61536	-775.49072	-10.37617	976.25116	-769.26971	233.20001	996.87854	-936.44794	93.22340	1097.42725	-852.77081	-75.53871	858.74622	-762.05194	-6.55439	804.66748	-843.93384	-67.28761	743.78668	-821.80457	-36.85528	606.92328	-801.01532	72.68216	566.47034	-816.92749	-35.02914	559.57410	-756.88245	16.66546	525.32141	-837.02246	-50.05263	472.17160	-762.63068	-24.24982	202.40863	-648.06757	-68.58808	160.88364	-606.24152	-75.74426	157.00403	-549.85962	-26.40217	163.54370	-598.94214	26.24908	166.36263	-726.87854	64.35572	218.93700	-673.34900	50.94894	162.31310	-794.29327	34.46152	172.40004	-871.10870	290.57114	863.24292	-764.15002	209.38292	812.14221	-845.83875	284.09198	727.85864	-848.53784	256.81705	624.06366	-799.29474	146.66692	570.57892	-832.58362	252.19847	562.78387	-770.91675	208.21217	535.88959	-852.35730	265.52051	482.89056	-773.26086	231.83221	201.23689	-659.98706	298.79810	156.41731	-623.15656	306.94992	158.33749	-557.59155	254.05537	163.43280	-593.95441	219.53441	173.49490	-721.88239	158.65627	222.13469	-676.85547	176.24911	162.57199	-798.75732	182.09064	181.21219	-528.02325	304.04047	146.25392	-517.79010	-72.81000	142.83661	-875.87830	-78.66584	141.18700	-882.62567	296.00687	144.55974	
